<?xml version="1.0"?>
<svg version="1.2" baseProfile="tiny-ps" viewBox="0 0 300 300" xmlns="http://www.w3.org/2000/svg"
     xmlns:xlink="http://www.w3.org/1999/xlink">
    <title>IngeniumSTEM</title>
    <desc>IngeniumSTEM - Redefining Student Education</desc>
    <g>
        <g fill="#fff" transform="matrix(.1 0 0 -.1 0 300)">
            <path d="M1356 2723c-129-27-233-78-337-164l-60-51-46-61c-25-34-63-97-84-141l-38-78-17-75-16-75 4-121 5-122 27-80 27-80 41-70 41-70 76-75 77-75 57-34c76-44 164-79 245-96l67-15h160l70 15c320 67 554 323 595 651l11 84-11 84-10 83-25 74c-14 40-44 105-67 144l-41 70-76 75-77 75-57 34c-80 47-166 80-253 97l-76 14-71-1-72-1-69-15zM607 973c-4-3-7-18-7-33v-26l12-12c18-18 43-15 63 8l18 20-11 25-12 25h-28c-16 0-32-3-35-7zm1103-8-12-15 6-25 6-25 25-6 25-6 15 12 15 12v22c0 28-18 46-46 46h-22l-12-15zm-552-91c-4-3-37-10-75-14l-68-9-17-21-18-22v-61l17-19 17-18-12-12c-17-17-15-43 4-59l17-14 51-5 51-5v-39l-25-6c-14-3-37-4-52-2l-28 4v28h-50v-39l22-15 22-16h127l24 25c27 26 31 46 15 75l-10 18-31 11c-18 6-47 11-66 11h-35l4 12 5 13 34 2 34 3 25 19 25 18 3 27 3 28-16 18-16 18 26 6 26 7-3 16c-3 18-20 27-30 17zm-49-72 10-19-5-21c-7-24-29-35-55-27l-18 6-6 19-6 19 11 21 11 20h48l10-18zm-297 42-22-15v21h-50V620h50v160l21 21 20 20 17-3 17-3 3-98 3-97h59v181l-11 22c-15 29-28 37-59 37h-26l-22-16zm449 2c-13-7-30-24-37-37l-13-24-1-51v-51l20-26 21-26 35-10 36-10 36 12 37 12v30l-48-3-48-4-14 12c-8 7-15 21-15 31v19h140v30c0 17-7 44-15 61l-16 30-25 9c-34 13-64 12-93-4zm76-38c6-7 13-21 16-30l6-18h-89v18c0 36 46 57 67 30zm203 35-24-17-4 12-4 12h-48V620h60v167l18 16c24 22 39 21 52-2l10-20V620h50v200l-20 20-20 20h-23c-12 0-33-8-47-17zm633 2-22-15-6 10c-3 5-17 10-31 10h-25l3-112 3-113 28-3 27-3v168l20 18 19 17 16-5 15-6V620h60v179l21 11 20 11 15-12 14-11V620h50v207l-18 16-19 17h-22c-12 0-33-7-46-16l-24-16-16 16-16 16h-22c-13 0-32-7-44-15zM610 735V620h60v230h-60V735zm1110 0V620h50v230h-50V735zm120 18c0-105 3-114 38-132l23-12 22 7c12 3 30 13 40 22l17 15v-33h50v230h-60V684l-12-12c-7-7-22-12-35-12h-23v190h-60v-97zM974 425c-9-22 3-46 26-52l20-5v-29l-25 3-24 3-1-10v-10h75l3 27 3 28-25 12c-14 6-26 15-26 20v8h51l-6 10-6 10h-60l-5-15zm306 5c0-5 7-10 15-10h15V320h30v100h15c8 0 15 5 15 10v10h-90v-10zm320-50v-60h80v20h-50v30h40v20h-40v30h50v20h-80v-60zm318 0-3-60h24l4 38 3 37 8-32 9-33h26l10 33 9 32 1-37 1-38h30v23c0 12-3 39-6 60l-7 37h-37v-22c0-13-5-30-10-38l-10-15v22c0 12-3 28-6 37l-6 16h-36l-4-60z"/>
        </g>
        <g fill="#8fb9be" transform="matrix(.1 0 0 -.1 0 300)">
            <path d="M1437 2430c-55-14-157-67-190-98-16-15-38-45-49-67l-21-40-5-75-4-75-19-30c-10-17-29-41-43-54-34-32-33-45 5-71l30-22-6-28-6-28 10-6 10-7-5-13-5-13 16-13 16-13-7-53-6-52 22-12 21-11 106 3 106 3 15-55c8-30 16-57 18-59 3-4 372 19 391 24l11 4-29 77-30 76-1 37v38l17 34c10 19 33 52 51 75 18 22 42 60 53 85l21 44v142l-30 61-31 61-36 32c-21 17-70 48-110 67l-74 35-87 3-87 3-38-9zm180-95c19-8 48-15 63-15h28l51-42 51-43 11-40c6-22 15-56 21-76l10-35-31-67-31-67-40-26-39-26-11-34-12-34h-38v120l29 32 29 33 20-18 20-18 7 11 7 11-16 18-16 18v62l30 16c30 15 36 26 24 38l-7 6-20-14-20-14-29 24c-16 14-34 25-39 25h-10l3 22 3 21-12 4-11 4-7-20-6-21h-34l-13 21-13 20 6 20 6 19h-30l-6-19-6-19-31-6-31-6-17 15c-18 17-40 20-40 6 0-5 7-14 15-21 20-17 19-33-3-54l-19-16-18 20-18 20h-19c-24 0-23-12 2-28 11-7 20-17 20-23v-11l-25 6-25 6-22-22-22-22 13-4c7-2 18 1 24 7s23 11 38 11h28l35 21 35 20 6 18 5 18 38 11 37 12 13-14 14-14-10-18-10-17-33-11-32-11-5-13-4-13 35 6 35 7 7-21 6-21h26l-1 43-1 42 29 3 28 4 29-12 28-12 6-19c4-11 4-33 0-49l-7-30-34-32-34-32v-146h-40v148l-31 26-31 26-56 2c-31 1-83 2-114 2l-57 1-28 21-28 21-6 24-6 24 9 29c4 16 19 41 33 56 14 14 25 31 25 36 0 18 35 43 68 50 17 4 37 13 43 20l11 14h103l15 10c21 13 35 12 77-5zM607 973c-4-3-7-18-7-33v-26l12-12c18-18 43-15 63 8l18 20-11 25-12 25h-28c-16 0-32-3-35-7zm1103-8-12-15 6-25 6-25 25-6 25-6 15 12 15 12v22c0 28-18 46-46 46h-22l-12-15z"/>
        </g>
        <g fill="#039a50" transform="matrix(.1 0 0 -.1 0 300)">
            <path d="M1445 2426c-69-18-118-40-170-77l-45-32-25-51-25-50v-115l-10-27c-6-15-29-47-50-71-22-23-40-47-40-52s16-18 35-30l35-20v-15c0-8-5-18-11-21l-10-7 15-17 16-18-6-6-7-7 13-15 13-15-5-51-5-50 24-16 25-17 87 13 87 12 15-6 16-6 16-59 17-59 52 5c29 2 116 9 192 14 77 5 141 12 143 14s-7 31-22 65c-14 34-28 81-31 104l-6 43 21 42c12 23 35 57 51 76 17 18 40 56 52 82l23 49v75l-1 75-26 51-26 50-41 37c-50 45-123 82-198 102-68 18-120 18-188 1zm200-91c17-3 41-8 53-11l24-5 54-54 54-53v-81l10-6 10-6v-57l-25-51-26-50-44-37-45-36-8-32-8-31-22-3-22-3v150l31 22 32 22 19-12 20-12 6 6 7 7-22 18-22 18 5 34 6 34 30 17 31 18-7 6-6 6-26-13-26-14-9 16c-5 8-22 21-39 28l-30 12 7 26 6 25-12-7c-6-4-11-14-11-22v-15l-16-6-15-6-23 22-24 22 5 20c7 24-2 24-27-1l-20-20h-53l-19 17-18 16-7-6-7-7 18-13 18-13-4-24-3-23-16-10-16-10-21 21c-22 22-42 29-42 14 0-4 9-13 20-20s20-17 20-22v-10h-66l-12-12c-7-7-12-16-12-22v-10l12 12 12 12h61l29 19c16 11 38 31 50 45l21 27 37 5 36 6 10-18 10-19-11-16c-7-9-25-20-41-26-17-5-32-15-34-22l-4-13 22 12 22 12 14-6c8-3 14-12 14-20s5-18 11-22l11-7-7 31-6 31 11 22 12 21 35-5c19-4 46-13 59-22l24-15v-80l-40-44-40-43v-143h-40v64c0 36-4 76-10 90l-9 25-23 12-23 13-55 3c-30 1-78 2-107 2h-52l-30 16c-36 18-51 43-51 82v28l20 33c11 17 24 32 29 32s14 14 21 30c14 34 37 50 73 50h24l19 21 19 21 47-5 47-6 7 10 6 11 37-5c20-3 50-8 66-12zM607 973c-4-3-7-18-7-33v-26l12-12c18-18 43-15 63 8l18 20-11 25-12 25h-28c-16 0-32-3-35-7zm1103-8-12-15 6-25 6-25 25-6 25-6 15 12 15 12v22c0 28-18 46-46 46h-22l-12-15z"/>
        </g>
        <g fill="#05835c" transform="matrix(.1 0 0 -.1 0 300)">
            <path d="M1445 2426c-69-18-118-40-170-77l-45-32-25-51-25-50v-115l-10-27c-6-15-29-47-50-71-22-23-40-47-40-52s16-18 35-30l35-20v-15c0-8-5-18-11-21l-10-7 15-17 16-18-6-6-7-7 13-15 13-15-5-51-5-50 24-16 25-17 87 13 87 12 16-6 15-6 14-52 14-52 30-2 30-3 137 133c148 143 224 233 260 306l23 46v75l-1 75-26 51-26 50-41 37c-50 45-123 82-198 102-68 18-120 18-188 1zm200-91c17-3 41-8 53-11l24-5 54-54 54-53v-81l10-6 10-6v-57l-24-49c-25-50-42-69-88-104l-28-20-8-32-8-32-22-3-22-3v150l31 22 32 22 19-12 20-12 6 6 7 7-22 18-22 18 5 34 6 34 30 17 31 18-7 6-6 6-26-13-26-14-9 16c-5 8-22 21-39 28l-30 12 7 26 6 25-12-7c-6-4-11-14-11-22v-15l-16-6-15-6-23 22-24 22 5 20c7 24-2 24-27-1l-20-20h-53l-19 17-18 16-7-6-7-7 18-13 18-13-4-24-3-23-16-10-16-10-21 21c-22 22-42 29-42 14 0-4 9-13 20-20s20-17 20-22v-10h-66l-12-12c-7-7-12-16-12-22v-10l12 12 12 12h61l29 19c16 11 38 31 50 45l21 27 37 5 36 6 10-18 10-19-11-16c-7-9-25-20-41-26-17-5-32-15-34-22l-4-13 22 12 22 12 14-6c8-3 14-12 14-20s5-18 11-22l11-7-7 31-6 31 11 22 12 21 35-5c19-4 46-13 59-22l24-15v-80l-40-44-40-43v-143h-40v64c0 36-4 76-10 90l-9 25-23 12-23 13-55 3c-30 1-78 2-107 2h-52l-30 16c-36 18-51 43-51 82v28l20 33c11 17 24 32 29 32s14 14 21 30c14 34 37 50 73 50h24l19 21 19 21 47-5 47-6 7 10 6 11 37-5c20-3 50-8 66-12zm65-1370-12-15 6-25 6-25 25-6 25-6 15 12 15 12v22c0 28-18 46-46 46h-22l-12-15z"/>
        </g>
        <g fill="#04636c" transform="matrix(.1 0 0 -.1 0 300)">
            <path d="M1445 2426c-69-18-118-40-170-77l-45-32-25-51-25-50v-115l-10-27c-6-15-29-47-50-71-22-23-40-47-40-52s16-18 35-30l35-20v-15c0-8-5-18-11-21l-10-7 15-17 16-18-6-6-7-7 12-14 12-14-2-51-3-51 13-13 12-12 60 2 60 1 22 15c12 8 73 63 135 122l112 107v75l-24 22-25 23-58 4c-32 2-81 3-110 3h-52l-30 16c-36 18-51 43-51 82v28l20 33c11 17 24 32 29 32s14 14 21 30c14 34 37 50 73 50h24l19 21 19 21 47-5 47-6 7 10 6 11 37-5c20-3 50-8 66-12 17-3 40-8 53-11l23-5 37-35c20-19 44-42 54-50l16-15 7-36 6-36 31 30 31 31-6 24c-4 14-24 45-46 70l-40 44-59 32c-108 58-206 73-307 48zm93-187-18-19h-53l-19 17-18 16-7-6-7-7 18-13 18-13-4-24-3-23-16-10-16-10-21 21c-22 22-42 29-42 14 0-4 9-13 20-20s20-17 20-22v-10h-66l-12-12c-7-7-12-16-12-22v-10l12 12 12 12h61l29 19c16 11 38 31 50 45l21 27 37 5 36 6 10-18 10-19-11-16c-7-9-25-20-41-26-17-5-32-15-34-22l-4-13 22 12 22 12 14-6c8-3 14-12 14-20s5-18 11-22l11-7-7 31-6 31 11 22 12 21 35-5c19-4 46-13 59-22l24-15v-88l-31-31c-17-17-27-31-22-31s21 12 35 28l26 27 7 36 7 37 24 11c13 6 24 16 24 23v12l-12-12c-7-7-20-12-30-12h-19l-5 14c-3 8-19 20-35 26l-29 12 7 26 6 25-12-7c-6-4-11-14-11-22v-15l-16-6-15-6-23 22-24 22 5 20 5 19-8-1c-5 0-17-9-26-20zm172-1274-12-15 6-25 6-25 25-6 25-6 15 12 15 12v22c0 28-18 46-46 46h-22l-12-15z"/>
        </g>
        <g fill="#033e7f" transform="matrix(.1 0 0 -.1 0 300)">
            <path d="M1480 2429c-75-10-135-33-197-75l-52-36-26-51-25-51v-133l-23-34c-13-19-35-46-50-61l-27-27 5-13c3-7 19-21 36-30l31-18-7-30-7-30h14c7 0 58 43 113 95l100 94-38 1h-39l-29 29-29 29v67l20 33c11 17 24 32 29 32s12 11 15 25l6 25 23 14c12 8 34 16 49 18s36 12 47 22l20 18 38-3c21-1 51 1 67 6l28 8 54-13 54-13 31 29 30 29-42 17c-22 10-60 21-83 24-22 3-50 7-61 8-11 2-45 0-75-5zm71-187-10-20-33-5-33-5-21 19-20 19-7-6-6-6 21-18 22-17-17-27c-21-32-34-33-64-4l-23 21-7-7-7-6 22-16c12-8 22-19 22-25v-9h-68l-12-15-12-15h10c6 0 13 4 17 9l5 10 29-1 28-1 31 18c17 10 36 29 43 41l12 23 43 7 42 6 6 21c7 28 0 33-13 9zm159-1277-12-15 6-25 6-25 25-6 25-6 15 12 15 12v22c0 28-18 46-46 46h-22l-12-15z"/>
        </g>
    </g>
</svg>